<svg width="19" height="18" viewBox="0 0 19 18" fill="none" xmlns="http://www.w3.org/2000/svg">
<path fill-rule="evenodd" clip-rule="evenodd" d="M0.733299 0H7.85418C8.18174 0 8.44759 0.265846 8.44759 0.593407V7.71429C8.44759 8.04185 8.18174 8.30769 7.85418 8.30769H0.733299C0.405739 8.30769 0.139893 8.04185 0.139893 7.71429V0.593407C0.139893 0.265846 0.405739 0 0.733299 0ZM1.32674 7.12086H7.26081V1.1868H1.32674V7.12086Z" fill="#77838F"/>
<path fill-rule="evenodd" clip-rule="evenodd" d="M10.4257 0H17.5466C17.8741 0 18.14 0.265846 18.14 0.593407V7.71429C18.14 8.04185 17.8741 8.30769 17.5466 8.30769H10.4257C10.0981 8.30769 9.83228 8.04185 9.83228 7.71429V0.593407C9.83228 0.265846 10.0981 0 10.4257 0ZM11.0191 7.12086H16.9532V1.1868H11.0191V7.12086Z" fill="#77838F"/>
<path fill-rule="evenodd" clip-rule="evenodd" d="M0.733299 9.69226H7.85418C8.18174 9.69226 8.44759 9.95811 8.44759 10.2857V17.4065C8.44759 17.7341 8.18174 18 7.85418 18H0.733299C0.405739 18 0.139893 17.7341 0.139893 17.4065V10.2857C0.139893 9.95811 0.405739 9.69226 0.733299 9.69226ZM1.32674 16.8131H7.26081V10.8791H1.32674V16.8131Z" fill="#77838F"/>
<path fill-rule="evenodd" clip-rule="evenodd" d="M10.4257 9.69238H17.5466C17.8741 9.69238 18.14 9.95823 18.14 10.2858V17.4067C18.14 17.7342 17.8741 18.0001 17.5466 18.0001H10.4257C10.0981 18.0001 9.83228 17.7342 9.83228 17.4067V10.2858C9.83228 9.95823 10.0981 9.69238 10.4257 9.69238ZM11.0191 16.8132H16.9532V10.8792H11.0191V16.8132Z" fill="#77838F"/>
</svg>
