<svg width="42" height="42" viewBox="0 0 42 42" fill="none" xmlns="http://www.w3.org/2000/svg">
<circle cx="21" cy="21" r="21" fill="#C4C4C4" fill-opacity="0.3"/>
<path d="M13.004 30.2193C12.7235 30.2188 12.456 30.1005 12.267 29.8933C12.0744 29.6877 11.9787 29.4098 12.004 29.1293L12.249 26.4353L23.567 15.1213L27.104 18.6573L15.789 29.9703L13.095 30.2153C13.064 30.2183 13.033 30.2193 13.004 30.2193ZM27.81 17.9503L24.274 14.4143L26.395 12.2933C26.5825 12.1055 26.8371 12 27.1025 12C27.3679 12 27.6224 12.1055 27.81 12.2933L29.931 14.4143C30.1188 14.6019 30.2243 14.8564 30.2243 15.1218C30.2243 15.3872 30.1188 15.6417 29.931 15.8293L27.811 17.9493L27.81 17.9503Z" fill="#FD7322" fill-opacity="0.8"/>
</svg>
