<svg id="Layer_1" data-name="Layer 1" xmlns="http://www.w3.org/2000/svg" viewBox="0 0 35 20"><defs><style>.cls-1{fill:#ff7300;}</style></defs><path class="cls-1" d="M32,17.77H9.48l17-10.31L28.82,6a.63.63,0,0,0,.28-.38A.62.62,0,0,0,29,5.18L26.67,1.3a.61.61,0,0,0-.84-.21L23.46,2.53,6.41,12.9a.55.55,0,0,0-.14.12l0,0L2.53,17.91a.54.54,0,0,0-.11.39.24.24,0,0,0,0,.09A.61.61,0,0,0,3,19H32a.62.62,0,0,0,0-1.23Zm-6-15.32,1.73,2.84-1.33.81L24.62,3.26ZM23.57,3.89,25.3,6.73l-16,9.73L7.56,13.62ZM6.67,14.5l1.42,2.34-3.66.59Z"/></svg>