<svg width="24" height="24" viewBox="0 0 24 24" fill="none" xmlns="http://www.w3.org/2000/svg">
<path d="M12 22.0002C6.47715 22.0002 2 17.5231 2 12.0002C2 6.4774 6.47715 2.00024 12 2.00024C17.5228 2.00024 22 6.4774 22 12.0002C21.9939 17.5206 17.5203 21.9942 12 22.0002ZM11.984 20.0002H12C16.4167 19.9958 19.9942 16.413 19.992 11.9962C19.9898 7.57953 16.4087 4.00025 11.992 4.00025C7.57528 4.00025 3.99421 7.57953 3.992 11.9962C3.98979 16.413 7.56729 19.9958 11.984 20.0002ZM10 17.0002L6 13.0002L7.41 11.5902L10 14.1702L16.59 7.58024L18 9.00024L10 17.0002Z" fill="#27AE60"/>
</svg>
