<svg xmlns="http://www.w3.org/2000/svg" viewBox="0 0 109.67 25.79"><defs><style>.cls-1{fill:#c9caca;}.cls-2{fill:#94196b;}.cls-3{fill:#231815;}</style></defs><g id="레이어_2" data-name="레이어 2"><g id="Layer_1" data-name="Layer 1"><polygon class="cls-1" points="0 0.17 9.64 0.17 15.34 13.87 10.66 25.79 0 0.17"/><polygon class="cls-1" points="10.71 0.17 20.1 0.17 26.02 14.08 21.37 25.79 10.71 0.17"/><polygon class="cls-2" points="21.19 0.17 31.46 0.17 26.55 12.66 21.19 0.17"/><path class="cls-3" d="M55.85,16.84a4.53,4.53,0,0,0,4,2.23,6.27,6.27,0,0,0,4.79-2.35A9.85,9.85,0,0,0,67,11.46a7.62,7.62,0,0,0-1-5.37,4.53,4.53,0,0,0-4-2.21,6.29,6.29,0,0,0-4.91,2.45,9.65,9.65,0,0,0-2.26,5,7.81,7.81,0,0,0,1,5.5m3.5-8.51A3.27,3.27,0,0,1,61.5,7.5a2.31,2.31,0,0,1,2.11,1.12,4.2,4.2,0,0,1,.45,2.84,5.19,5.19,0,0,1-1.45,3,3.13,3.13,0,0,1-2.23,1.05,2.33,2.33,0,0,1-2.1-1.32,4.35,4.35,0,0,1-.47-2.86,4.7,4.7,0,0,1,1.54-3.05"/><path class="cls-3" d="M68.77,16.84a4.55,4.55,0,0,0,4,2.23,6.26,6.26,0,0,0,4.79-2.35A9.85,9.85,0,0,0,80,11.46a7.57,7.57,0,0,0-1-5.37,4.52,4.52,0,0,0-4-2.21,6.29,6.29,0,0,0-4.92,2.45,9.56,9.56,0,0,0-2.25,5,7.81,7.81,0,0,0,1,5.5m3.51-8.51a3.25,3.25,0,0,1,2.14-.83,2.3,2.3,0,0,1,2.11,1.12A4.2,4.2,0,0,1,77,11.46a5.19,5.19,0,0,1-1.45,3,3.09,3.09,0,0,1-2.22,1.05,2.34,2.34,0,0,1-2.11-1.32,4.41,4.41,0,0,1-.47-2.86,4.66,4.66,0,0,1,1.55-3.05"/><path class="cls-3" d="M86.54,14.92a4.34,4.34,0,0,1-.76,1.61,6,6,0,0,1-1.51,1.54,3,3,0,0,1-1.73.64H78.63l.62-3.52h2a1.84,1.84,0,0,0,1.07-.34,2.85,2.85,0,0,0,.81-.85,2.67,2.67,0,0,0,.41-1l1.55-8.79h3.33L86.54,14.92"/><path class="cls-2" d="M93.66,1.68A1.68,1.68,0,1,1,92,0a1.69,1.69,0,0,1,1.68,1.68"/><polygon class="cls-3" points="90.75 18.7 87.41 18.7 89.96 4.24 93.3 4.24 90.75 18.7"/><path class="cls-3" d="M104.32,14.64c.45-.12.5-.68.5-.68l1.63-9.72h3.22l-2,11.68c-.31,1.72-1.31,3.12-3.18,3.12-2.5,0-3.22-2.12-3.58-2.87-.65-1.33-2.74-7.84-2.75-7.87A.46.46,0,0,0,97.63,8c-.35.07-.44.53-.44.53L95.41,18.71H92.22L94.28,7c.3-1.68,1.25-3.05,3.15-3.05a3.54,3.54,0,0,1,3.33,2.59l2.88,7.79s.24.49.68.36"/><path class="cls-3" d="M53.3,4.25,49,13.64s-.19.53-.59.53-.42-.54-.42-.54l-.49-9.38H43.57l-3.68,9.38s-.18.54-.61.54-.4-.53-.4-.53L37.76,4.25H34.1l1.6,12.46A2.62,2.62,0,0,0,38.31,19a3.82,3.82,0,0,0,3.4-2.33l.44-.88,2.4-6,.39,6,.13.88A2.47,2.47,0,0,0,47.65,19a4.11,4.11,0,0,0,3.43-2.33L57,4.25H53.3"/><path class="cls-3" d="M42.34,24c0,.07-.08.28-.08.34,0,.24.23.24.41.24l0,.09H41l0-.09c.4,0,.47-.13.59-.58l.59-2a2.37,2.37,0,0,0,.08-.34c0-.24-.23-.24-.4-.24l0-.09h1.67l0,.09c-.39,0-.46.13-.59.58l-.59,2"/><path class="cls-3" d="M44.1,23.42h0c.23-.35.69-1.09,1.17-1.09a.32.32,0,0,1,.32.36,1.23,1.23,0,0,1-.08.38l-.28.94a1,1,0,0,0-.06.25.06.06,0,0,0,.06.06c.1,0,.23-.25.3-.33l.1.06c-.17.27-.43.61-.78.61a.28.28,0,0,1-.32-.28,1.61,1.61,0,0,1,.07-.37l.28-.94a1.6,1.6,0,0,0,0-.21.07.07,0,0,0-.08-.07c-.27,0-.83.91-.9,1.16l-.21.68h-.62l.49-1.6a1.73,1.73,0,0,0,.07-.31c0-.12-.12-.15-.21-.15h-.06l0-.09.89-.15h.1l-.34,1.08"/><path class="cls-3" d="M48.64,21.19h-.1l-.89.15,0,.09h0c.09,0,.21,0,.21.15a1.55,1.55,0,0,1-.07.31l-.18.63a.43.43,0,0,0-.34-.18c-.65,0-1.34,1-1.34,1.77,0,.27.11.6.44.6s.7-.56.87-.86h0a1.78,1.78,0,0,0-.14.57.27.27,0,0,0,.3.28c.38,0,.61-.31.78-.61l-.08-.05c0,.08-.22.31-.32.31a.06.06,0,0,1-.07-.07,1.22,1.22,0,0,1,.06-.26l.83-2.84m-2,2.82c0-.41.37-1.53.74-1.53.15,0,.19.17.19.29,0,.42-.49,1.48-.79,1.48-.11,0-.14-.16-.14-.24"/><path class="cls-3" d="M49.24,24a1.6,1.6,0,0,0-.05.21.07.07,0,0,0,.07.07c.26,0,.76-.83.88-1.06l.23-.78.63,0L50.53,24c0,.05-.07.25-.07.3s0,.07,0,.07.23-.22.31-.34l.08.07c-.16.29-.41.62-.78.62a.28.28,0,0,1-.31-.29,2.94,2.94,0,0,1,.18-.74h0c-.22.32-.67,1-1.11,1a.33.33,0,0,1-.34-.34A3.2,3.2,0,0,1,48.6,24l.29-.92a1.73,1.73,0,0,0,.07-.31c0-.11-.11-.15-.21-.15h0l0-.09.89-.15h.1L49.24,24"/><path class="cls-3" d="M52.92,23.1h-.09a.62.62,0,0,0-.53-.64.24.24,0,0,0-.26.24c0,.35.74.68.74,1.25a.78.78,0,0,1-.8.76,1,1,0,0,1-.32,0,.8.8,0,0,0-.26-.05.17.17,0,0,0-.17.09h-.1l.13-.83h.09c0,.27.23.71.6.71a.3.3,0,0,0,.32-.29c0-.45-.78-.78-.78-1.34a.65.65,0,0,1,.73-.62,1.67,1.67,0,0,1,.39.05l.18,0a.18.18,0,0,0,.15-.08H53l-.12.76"/><path class="cls-3" d="M54.33,22.4h.33l-.09.3h-.32l-.4,1.38a1.11,1.11,0,0,0-.05.25s0,.09.06.09.29-.24.36-.34l.09.05a1,1,0,0,1-.8.58.3.3,0,0,1-.34-.29,1.63,1.63,0,0,1,.08-.44l.37-1.28h-.33l0-.19a2.38,2.38,0,0,0,1.07-.78h.13l-.2.67"/><path class="cls-3" d="M55.28,23.72v0c.51-1.2.74-1.4,1-1.4s.24.14.24.29-.08.5-.29.5-.15-.21-.25-.21-.58.64-.82,1.72h-.6l.42-1.7a.66.66,0,0,0,0-.21c0-.11-.12-.15-.22-.15h-.05l0-.09.82-.15h.09l-.38,1.38"/><path class="cls-3" d="M57.52,21.19a.37.37,0,1,1-.37.37.38.38,0,0,1,.37-.37m-.34,2.86a1.11,1.11,0,0,0,0,.25s0,.08.06.08.29-.27.36-.37l.08,0c-.16.29-.44.65-.8.65a.32.32,0,0,1-.35-.31,1,1,0,0,1,.06-.3L56.86,23a1.73,1.73,0,0,0,.07-.31c0-.12-.12-.15-.22-.15h-.05l0-.09.89-.15h.09Z"/><path class="cls-3" d="M60.18,22.37l-.59,0-.09.31h0c0-.2-.1-.37-.33-.37-.63,0-1.32,1-1.32,1.76,0,.27.1.61.43.61s.7-.52.88-.82h0a2.36,2.36,0,0,0-.15.55.26.26,0,0,0,.29.26,1,1,0,0,0,.82-.62l-.09,0c-.06.09-.2.31-.32.31a.08.08,0,0,1-.07-.08s0-.16,0-.19l.5-1.72M58.49,24c0-.43.36-1.53.71-1.53.17,0,.19.22.19.35,0,.5-.47,1.41-.76,1.41-.11,0-.14-.15-.14-.23"/><path class="cls-3" d="M61,24.05a1.14,1.14,0,0,0-.06.25s0,.08.06.08.29-.27.36-.37l.09,0c-.17.29-.44.65-.8.65a.32.32,0,0,1-.36-.31,1,1,0,0,1,.06-.3L61,21.89a1.57,1.57,0,0,0,.08-.31c0-.11-.12-.15-.22-.15h0l0-.09.89-.15h.09L61,24.05"/><path class="cls-3" d="M66.76,22.34h-.09c0-.41-.28-.92-.74-.92a.5.5,0,0,0-.49.5c0,.66,1.08,1,1.08,1.82,0,.67-.59,1-1.18,1a2.79,2.79,0,0,1-.58-.07,2.5,2.5,0,0,0-.38-.06.51.51,0,0,0-.33.13H64l.3-1.29h.09c0,.53.29,1.08.9,1.08A.56.56,0,0,0,65.8,24c0-.68-1.07-1-1.07-1.85a1,1,0,0,1,1.07-.92,2.11,2.11,0,0,1,.56.09.94.94,0,0,0,.3.06c.13,0,.18-.05.27-.15H67l-.27,1.15"/><path class="cls-3" d="M67.73,22.34c.21.22.25.79.29,2h0c.54-.82.71-1,.71-1.25s-.3-.2-.3-.45a.31.31,0,0,1,.32-.31.35.35,0,0,1,.33.36,5.06,5.06,0,0,1-1.14,2c-.63.84-1,1.06-1.25,1.06a.34.34,0,0,1-.34-.34.31.31,0,0,1,.31-.32c.23,0,.29.26.41.26s.24-.13.33-.21c0-2.32-.08-2.48-.37-2.48H67v-.1l.77-.21"/><path class="cls-3" d="M70.83,23.1h-.09a.62.62,0,0,0-.53-.64.24.24,0,0,0-.26.24c0,.35.73.68.73,1.25a.77.77,0,0,1-.79.76,1.08,1.08,0,0,1-.32,0,.8.8,0,0,0-.26-.05.17.17,0,0,0-.17.09H69l.12-.83h.1c0,.27.23.71.59.71a.31.31,0,0,0,.33-.29c0-.45-.78-.78-.78-1.34a.65.65,0,0,1,.73-.62,1.67,1.67,0,0,1,.39.05,1,1,0,0,0,.18,0,.18.18,0,0,0,.15-.08H71l-.12.76"/><path class="cls-3" d="M72.24,22.4h.33l-.09.3h-.32l-.4,1.38a1.11,1.11,0,0,0-.05.25s0,.09.06.09.29-.24.36-.34l.09.05a1,1,0,0,1-.8.58.31.31,0,0,1-.34-.29,1.63,1.63,0,0,1,.08-.44l.37-1.28H71.2l0-.19a2.41,2.41,0,0,0,1.06-.78h.13l-.2.67"/><path class="cls-3" d="M74.28,24a1.14,1.14,0,0,1-.75.38.39.39,0,0,1-.4-.43,2.11,2.11,0,0,1,0-.25c1.09-.07,1.45-.7,1.45-1s-.2-.34-.42-.34a1.8,1.8,0,0,0-1.71,1.72.65.65,0,0,0,.74.65,1.43,1.43,0,0,0,1.15-.64L74.28,24m-1.1-.43c0-.27.41-1.08.72-1.08.09,0,.13.07.13.16a1,1,0,0,1-.85.92"/><path class="cls-3" d="M75.59,23.39v0c.22-.34.64-1.07,1.1-1.07a.28.28,0,0,1,.3.3,2.48,2.48,0,0,1-.17.75v0c.21-.34.63-1.07,1.06-1.07a.33.33,0,0,1,.33.36,1.61,1.61,0,0,1-.08.38l-.29,1a1.44,1.44,0,0,0,0,.24.06.06,0,0,0,0,.06c.11,0,.24-.25.3-.33l.1.05c-.16.28-.42.62-.77.62a.29.29,0,0,1-.33-.28,1.63,1.63,0,0,1,.08-.37l.27-.94a.8.8,0,0,0,0-.21.07.07,0,0,0-.07-.07c-.16,0-.7.72-.85,1.25l-.17.59h-.64l.46-1.56a1.6,1.6,0,0,0,0-.21.07.07,0,0,0-.08-.07,2.56,2.56,0,0,0-.85,1.25l-.17.59h-.63l.48-1.6a1.29,1.29,0,0,0,.08-.31c0-.11-.12-.15-.22-.15h0l0-.09.89-.15h.09l-.32,1.05"/><path class="cls-3" d="M80.26,23.1h-.09c0-.28-.23-.64-.53-.64a.25.25,0,0,0-.27.24c0,.35.74.68.74,1.25a.77.77,0,0,1-.79.76,1,1,0,0,1-.32,0,.85.85,0,0,0-.26-.05.16.16,0,0,0-.17.09h-.1l.12-.83h.1c0,.27.22.71.59.71a.3.3,0,0,0,.32-.29c0-.45-.78-.78-.78-1.34a.66.66,0,0,1,.74-.62,1.58,1.58,0,0,1,.38.05l.18,0a.19.19,0,0,0,.16-.08h.09l-.11.76"/><path class="cls-3" d="M85.94,23.88a1.54,1.54,0,0,1-1.38.84,1.27,1.27,0,0,1-1.37-1.34,2.28,2.28,0,0,1,2.26-2.19,1.83,1.83,0,0,1,.52.09.78.78,0,0,0,.22,0,.36.36,0,0,0,.25-.13h.09l-.25,1.07h-.1c0-.44-.22-.86-.72-.86-.88,0-1.46,1.28-1.46,2.15,0,.5.24.88.78.88a1.25,1.25,0,0,0,1-.55h.13"/><path class="cls-3" d="M88.59,23a.67.67,0,0,0-.71-.7A1.7,1.7,0,0,0,86.33,24a.66.66,0,0,0,.71.7A1.72,1.72,0,0,0,88.59,23m-.6-.29c0,.45-.37,1.83-.81,1.83-.14,0-.24-.13-.24-.33s.35-1.77.83-1.77c.16,0,.22.15.22.27"/><path class="cls-3" d="M88.64,24.3a.41.41,0,1,1,.41.41.41.41,0,0,1-.41-.41"/><path class="cls-3" d="M89.78,25.36c.21-.11.54-.29.54-.5s-.33-.27-.33-.57a.41.41,0,0,1,.41-.4.43.43,0,0,1,.42.47c0,.53-.52.94-1,1.11l0-.11"/><path class="cls-3" d="M93.57,24a1.75,1.75,0,0,0-.06.34c0,.11.14.14.23.14a1.75,1.75,0,0,0,1.45-.76h.11l-.38.95H92.21l0-.09c.39,0,.46-.13.59-.58l.58-2a2.46,2.46,0,0,0,.09-.34c0-.24-.23-.24-.41-.24l0-.09h1.67l0,.09c-.39,0-.46.13-.59.58l-.59,2"/><path class="cls-3" d="M96.61,22.4h.33l-.09.3h-.32l-.4,1.38a1.11,1.11,0,0,0,0,.25s0,.09.06.09.29-.24.36-.34l.09.05a1,1,0,0,1-.8.58.31.31,0,0,1-.34-.29,1.63,1.63,0,0,1,.08-.44l.38-1.28h-.34l.05-.19a2.41,2.41,0,0,0,1.06-.78h.13l-.2.67"/><path class="cls-3" d="M99.58,21.19h-.09l-.89.15,0,.09h.06c.09,0,.21,0,.21.15a1.55,1.55,0,0,1-.07.31l-.19.63a.4.4,0,0,0-.34-.18c-.64,0-1.33,1-1.33,1.77,0,.27.11.6.43.6s.71-.56.88-.86h0a1.78,1.78,0,0,0-.14.57.27.27,0,0,0,.3.28,1,1,0,0,0,.78-.61l-.09-.05c0,.08-.21.31-.31.31a.06.06,0,0,1-.07-.07,1.22,1.22,0,0,1,.06-.26l.82-2.84m-2,2.82c0-.41.38-1.53.74-1.53.16,0,.2.17.2.29,0,.42-.49,1.48-.79,1.48-.12,0-.15-.16-.15-.24"/><path class="cls-3" d="M99.32,24.3a.42.42,0,1,1,.42.41.41.41,0,0,1-.42-.41"/></g></g></svg>