<svg width="33" height="33" viewBox="0 0 33 33" fill="none" xmlns="http://www.w3.org/2000/svg">
<circle cx="16.5" cy="16.5" r="16.5" fill="#4F94F1"/>
<path d="M25.9713 13.5945C25.9024 13.3721 25.7191 13.21 25.4983 13.1765L19.2983 12.232L16.5254 6.34238C16.4267 6.13272 16.223 6 16 6C15.777 6 15.5733 6.13272 15.4746 6.34238L12.7016 12.232L6.50167 13.1765C6.28101 13.21 6.09761 13.3721 6.02871 13.5945C5.95976 13.8169 6.01726 14.061 6.17699 14.2242L10.6632 18.8086L9.60432 25.282C9.56658 25.5124 9.65697 25.7453 9.8374 25.8827C9.93947 25.9604 10.0604 26 10.1819 26C10.2751 26 10.3687 25.9767 10.4544 25.9294L16 22.8731L21.5453 25.9294C21.7428 26.0382 21.982 26.0201 22.1624 25.8827C22.3428 25.7453 22.4332 25.5123 22.3955 25.2819L21.3363 18.8086L25.823 14.2241C25.9827 14.061 26.0403 13.8169 25.9713 13.5945Z" fill="white"/>
</svg>
