<svg width="13" height="12" viewBox="0 0 13 12" fill="none" xmlns="http://www.w3.org/2000/svg">
<path d="M6.5 11.9947C6.08075 11.6135 5.6069 11.2171 5.10575 10.7953H5.09925C3.33451 9.31603 1.33446 7.64221 0.451114 5.63656C0.160901 4.99803 0.00710241 4.30332 7.41387e-06 3.59893C-0.00193075 2.63241 0.376215 1.70588 1.04899 1.02874C1.72176 0.351604 2.63237 -0.0189779 3.57501 0.000749139C4.34241 0.00199171 5.0933 0.229354 5.7382 0.655751C6.02158 0.844301 6.27797 1.07238 6.5 1.33341C6.72327 1.0734 6.97973 0.84546 7.26245 0.655751C7.90708 0.22927 8.65778 0.00189426 9.42499 0.000749139C10.3676 -0.0189779 11.2782 0.351604 11.951 1.02874C12.6238 1.70588 13.0019 2.63241 13 3.59893C12.9934 4.30445 12.8396 5.00035 12.5489 5.63989C11.6655 7.64554 9.66614 9.31869 7.9014 10.7953L7.8949 10.8006C7.3931 11.2197 6.9199 11.6162 6.50065 12L6.5 11.9947ZM3.57501 1.33341C2.96954 1.32564 2.38556 1.56319 1.95001 1.99441C1.53036 2.41697 1.29582 2.99593 1.29996 3.59893C1.30737 4.11233 1.4208 4.61831 1.63281 5.08351C2.04979 5.94887 2.61243 6.73204 3.29486 7.397C3.93901 8.06333 4.68 8.70834 5.3209 9.25073C5.49835 9.40065 5.67905 9.55191 5.85975 9.70317L5.9735 9.79845C6.14705 9.94371 6.32645 10.0943 6.5 10.2422L6.50845 10.2342L6.51235 10.2309H6.51625L6.5221 10.2262H6.52535H6.5286L6.5403 10.2162L6.56695 10.1943L6.5715 10.1903L6.57865 10.1849H6.58255L6.5884 10.1796L7.02 9.81644L7.1331 9.72116C7.31575 9.56857 7.49645 9.41731 7.6739 9.26739C8.3148 8.72499 9.05644 8.08065 9.70059 7.41099C10.3831 6.74637 10.9458 5.9634 11.3626 5.09817C11.5785 4.62894 11.6935 4.11767 11.7 3.59893C11.7027 2.99779 11.4683 2.42105 11.05 1.99974C10.6153 1.56657 10.0312 1.32707 9.42499 1.33341C8.68524 1.32696 7.97806 1.64483 7.4815 2.20696L6.5 3.36638L5.5185 2.20696C5.02194 1.64483 4.31475 1.32696 3.57501 1.33341Z" fill="#979797"/>
</svg>
