<svg id="Layer_1" data-name="Layer 1" xmlns="http://www.w3.org/2000/svg" viewBox="0 0 35 20"><defs><style>.cls-1{fill:#fff;}</style></defs><path class="cls-1" d="M23.24-.28A8.11,8.11,0,0,0,17.5,2,8.11,8.11,0,0,0,11.76-.28C7.59-.28,4.2,2.64,4.17,6.24c-.09.74-.52,7.42,13.05,14l.26-.53h0l-.24.55a.56.56,0,0,0,.25.05.55.55,0,0,0,.31-.08l0,0C31.35,13.64,30.92,7,30.83,6.24,30.8,2.64,27.41-.28,23.24-.28Zm5.21,10.57c-2.3,3.87-7.17,6.85-10.95,8.7-3.78-1.85-8.65-4.83-10.95-8.7a6.6,6.6,0,0,1-1.16-3.9s0-.07,0-.1C5.4,3.34,8.25.94,11.76.94A6.79,6.79,0,0,1,17,3.28a.6.6,0,0,0,.94,0A6.79,6.79,0,0,1,23.24.94c3.51,0,6.36,2.4,6.36,5.35,0,0,0,.06,0,.09A6.61,6.61,0,0,1,28.45,10.29Z"/></svg>