<svg xmlns="http://www.w3.org/2000/svg" viewBox="0 0 26.7 20.6"><defs><style>.cls-1{fill:#fff;}.cls-2{fill:#ed712a;}</style></defs><g id="레이어_2" data-name="레이어 2"><g id="레이어_1-2" data-name="레이어 1"><path class="cls-1" d="M19.09,0a8.11,8.11,0,0,0-5.74,2.27A8.11,8.11,0,0,0,7.61,0C3.44,0,.05,3,0,6.56c-.09.74-.52,7.42,13.05,14l.26-.53h0l-.24.55a.74.74,0,0,0,.25.05.55.55,0,0,0,.31-.08l0,0C27.2,14,26.77,7.3,26.68,6.56,26.65,3,23.26,0,19.09,0Z"/><path class="cls-2" d="M19.09,0a8.15,8.15,0,0,0-5.74,2.27A8.15,8.15,0,0,0,7.61,0C3.44,0,.05,2.92,0,6.53c-.09.73-.52,7.41,13.05,14l.26-.54h0l-.24.54a.57.57,0,0,0,.25.06.65.65,0,0,0,.31-.08l0,0c13.5-6.55,13.07-13.21,13-13.94C26.65,2.92,23.26,0,19.09,0ZM24.3,10.6c-2.3,3.88-7.17,6.86-11,8.71C9.57,17.46,4.7,14.48,2.4,10.6A6.56,6.56,0,0,1,1.24,6.71s0-.07,0-.1c0-2.95,2.85-5.35,6.36-5.35A6.77,6.77,0,0,1,12.88,3.6a.58.58,0,0,0,.47.23.62.62,0,0,0,.48-.23,6.75,6.75,0,0,1,5.26-2.34c3.51,0,6.36,2.4,6.36,5.35,0,0,0,.06,0,.09A6.57,6.57,0,0,1,24.3,10.6Z"/></g></g></svg>