<svg xmlns="http://www.w3.org/2000/svg" viewBox="0 0 26.7 20.57"><defs><style>.cls-1{fill:#fff;}.cls-2{fill:#828282;}</style></defs><g id="레이어_2" data-name="레이어 2"><g id="레이어_1-2" data-name="레이어 1"><path class="cls-1" d="M19.09,0a8.15,8.15,0,0,0-5.74,2.27A8.15,8.15,0,0,0,7.61,0C3.44,0,.05,2.92,0,6.53c-.09.73-.52,7.41,13.05,14l.26-.54h0l-.24.54a.57.57,0,0,0,.25.06.65.65,0,0,0,.31-.08l0,0c13.5-6.55,13.07-13.21,13-13.94C26.65,2.92,23.26,0,19.09,0Z"/><path class="cls-2" d="M19.09,0a8.15,8.15,0,0,0-5.74,2.27A8.15,8.15,0,0,0,7.61,0C3.44,0,.05,2.92,0,6.53c-.09.73-.52,7.41,13.05,14l.26-.54h0l-.24.54a.57.57,0,0,0,.25.06.65.65,0,0,0,.31-.08l0,0c13.5-6.55,13.07-13.21,13-13.94C26.65,2.92,23.26,0,19.09,0ZM24.3,10.57c-2.3,3.87-7.17,6.85-11,8.7C9.57,17.42,4.7,14.44,2.4,10.57a6.59,6.59,0,0,1-1.16-3.9s0-.07,0-.1c0-2.95,2.85-5.35,6.36-5.35a6.78,6.78,0,0,1,5.27,2.35.61.61,0,0,0,.94,0,6.79,6.79,0,0,1,5.27-2.35c3.51,0,6.36,2.4,6.36,5.35,0,0,0,.07,0,.1A6.59,6.59,0,0,1,24.3,10.57Z"/></g></g></svg>