<svg width="21" height="20" viewBox="0 0 21 20" fill="none" xmlns="http://www.w3.org/2000/svg">
<path d="M20 7.6699C19.9368 7.48699 19.822 7.32633 19.6693 7.2074C19.5167 7.08848 19.3328 7.0164 19.14 6.9999L13.45 6.1699L10.9 0.999901C10.8181 0.83083 10.6902 0.688243 10.5311 0.588475C10.3719 0.488706 10.1878 0.435791 9.99998 0.435791C9.81212 0.435791 9.62806 0.488706 9.46889 0.588475C9.30971 0.688243 9.18186 0.83083 9.09998 0.999901L6.54998 6.1599L0.859977 6.9999C0.6749 7.02621 0.500902 7.10386 0.357728 7.22406C0.214554 7.34425 0.107937 7.50218 0.0499774 7.6799C-0.00307759 7.85358 -0.00783865 8.03842 0.0362052 8.21459C0.080249 8.39077 0.171435 8.55163 0.299977 8.6799L4.42998 12.6799L3.42998 18.3599C3.39428 18.5474 3.41297 18.7412 3.48385 18.9184C3.55473 19.0955 3.67483 19.2488 3.82998 19.3599C3.9812 19.468 4.15955 19.5318 4.34503 19.5442C4.5305 19.5566 4.71575 19.517 4.87998 19.4299L9.99998 16.7599L15.1 19.4399C15.2403 19.5191 15.3988 19.5604 15.56 19.5599C15.7718 19.5607 15.9784 19.4941 16.15 19.3699C16.3051 19.2588 16.4252 19.1055 16.4961 18.9284C16.567 18.7512 16.5857 18.5574 16.55 18.3699L15.55 12.6899L19.68 8.6899C19.8244 8.56758 19.9311 8.4068 19.9877 8.22625C20.0444 8.0457 20.0486 7.85278 20 7.6699ZM13.85 11.6699C13.7327 11.7833 13.645 11.9237 13.5944 12.0789C13.5439 12.234 13.532 12.3992 13.56 12.5599L14.28 16.7499L10.52 14.7499C10.3753 14.6729 10.2139 14.6326 10.05 14.6326C9.88606 14.6326 9.72466 14.6729 9.57998 14.7499L5.81998 16.7499L6.53998 12.5599C6.56791 12.3992 6.55609 12.234 6.50554 12.0789C6.45499 11.9237 6.36725 11.7833 6.24998 11.6699L3.24998 8.6699L7.45998 8.0599C7.62198 8.03737 7.77598 7.97544 7.90848 7.87955C8.04098 7.78366 8.14794 7.65674 8.21998 7.5099L9.99998 3.6999L11.88 7.5199C11.952 7.66674 12.059 7.79366 12.1915 7.88955C12.324 7.98544 12.478 8.04737 12.64 8.0699L16.85 8.6799L13.85 11.6699Z" fill="#77838F"/>
</svg>
