<svg width="20" height="20" viewBox="0 0 20 20" fill="none" xmlns="http://www.w3.org/2000/svg">
<path fill-rule="evenodd" clip-rule="evenodd" d="M18.8067 18.7457L14.3015 14.2648C17.4582 11.0886 17.5544 5.99 14.5197 2.69697C11.4851 -0.596065 6.39558 -0.915882 2.97256 1.97136C-0.450455 4.8586 -0.993283 9.92915 1.74098 13.4756C4.47525 17.022 9.51709 17.7868 13.1801 15.2107L17.773 19.8037C18.0612 20.0722 18.5103 20.0643 18.7888 19.7858C19.0673 19.5073 19.0752 19.0582 18.8067 18.77V18.7457ZM1.59039 8.41394C1.59039 4.64401 4.64652 1.58788 8.41645 1.58788C12.1864 1.58788 15.2425 4.64401 15.2425 8.41394C15.2425 12.1839 12.1864 15.24 8.41645 15.24C4.64652 15.24 1.59039 12.1839 1.59039 8.41394Z" fill="#4F94F1"/>
</svg>
