<svg width="13" height="12" viewBox="0 0 13 12" fill="none" xmlns="http://www.w3.org/2000/svg">
<path d="M2.492 11.9101C2.71237 12.0654 2.97865 12.0166 3.30462 11.7859L6.5 9.52276L9.69538 11.7859C10.0213 12.0166 10.2922 12.0654 10.508 11.9101C10.7192 11.7548 10.7697 11.4974 10.6411 11.1247L9.38778 7.49485L12.6061 5.25838C12.9321 5.03207 13.0606 4.79688 12.9734 4.54838C12.8908 4.30876 12.652 4.18008 12.2388 4.18451L8.29051 4.2067L7.08307 0.563556C6.95911 0.186373 6.76628 0 6.5 0C6.23372 0 6.04089 0.186373 5.91693 0.563556L4.70949 4.2067L0.761171 4.18451C0.352567 4.18008 0.10924 4.30876 0.0266011 4.54838C-0.0606291 4.79688 0.0679207 5.03207 0.393886 5.25838L3.61222 7.49485L2.36345 11.1247C2.23031 11.4974 2.28081 11.7548 2.492 11.9101Z" fill="#FD7322"/>
</svg>
