<svg width="20" height="20" viewBox="0 0 20 20" fill="none" xmlns="http://www.w3.org/2000/svg">
<path fill-rule="evenodd" clip-rule="evenodd" d="M10.0978 6.3999C8.13411 6.3999 6.54224 7.99178 6.54224 9.95546C6.54224 11.9191 8.13411 13.511 10.0978 13.511C12.0615 13.511 13.6533 11.9191 13.6533 9.95546C13.6533 7.99178 12.0615 6.3999 10.0978 6.3999ZM10.0978 12.1777C8.87049 12.1777 7.87557 11.1828 7.87557 9.95546C7.87557 8.72816 8.87049 7.73324 10.0978 7.73324C11.3251 7.73324 12.32 8.72816 12.32 9.95546C12.32 11.1828 11.3251 12.1777 10.0978 12.1777Z" fill="#77838F"/>
<path fill-rule="evenodd" clip-rule="evenodd" d="M18.5422 7.28885H17.1644C17.1081 7.13773 17.0459 6.98959 16.9778 6.8444L17.9511 5.87107C18.471 5.3505 18.471 4.50719 17.9511 3.98662L16.0667 2.10218C15.5461 1.58226 14.7028 1.58226 14.1822 2.10218L13.2089 3.07551C13.0637 3.01033 12.9155 2.9481 12.7644 2.88885V1.51107C12.7644 0.774688 12.1675 0.177734 11.4311 0.177734H8.76443C8.02805 0.177734 7.4311 0.774688 7.4311 1.51107V2.88885C7.27998 2.94514 7.13184 3.00736 6.98665 3.07551L6.01332 2.10218C5.49275 1.58226 4.64944 1.58226 4.12887 2.10218L2.24443 3.98662C1.72451 4.50719 1.72451 5.3505 2.24443 5.87107L3.20887 6.8444C3.14369 6.98959 3.08147 7.13773 3.02221 7.28885H1.64443C0.90805 7.28885 0.311096 7.8858 0.311096 8.62218V11.2888C0.311096 12.0252 0.90805 12.6222 1.64443 12.6222H3.02221C3.0785 12.7733 3.14073 12.9214 3.20887 13.0666L2.23554 14.04C1.71562 14.5605 1.71562 15.4038 2.23554 15.9244L4.11999 17.8088C4.64055 18.3288 5.48386 18.3288 6.00443 17.8088L6.97776 16.8355C7.12295 16.9007 7.2711 16.9629 7.42221 17.0222V18.4C7.42221 19.1363 8.01916 19.7333 8.75554 19.7333H11.4222C12.1586 19.7333 12.7555 19.1363 12.7555 18.4V17.0222C12.9067 16.9659 13.0548 16.9037 13.2 16.8355L14.1733 17.8088C14.6939 18.3288 15.5372 18.3288 16.0578 17.8088L17.9422 15.9244C18.4621 15.4038 18.4621 14.5605 17.9422 14.04L16.9867 13.0666C17.0518 12.9214 17.1141 12.7733 17.1733 12.6222H18.5511C19.2875 12.6222 19.8844 12.0252 19.8844 11.2888V8.62218C19.8844 8.26701 19.7427 7.92652 19.4908 7.67621C19.2388 7.42591 18.8974 7.28648 18.5422 7.28885ZM18.5422 11.2888H16.1733C16.0155 12.006 15.731 12.6893 15.3333 13.3066L17.0089 14.9822L15.1244 16.8666L13.4311 15.1911C12.8138 15.5888 12.1305 15.8732 11.4133 16.0311V18.4H8.74665V16.0311C8.02948 15.8732 7.3462 15.5888 6.72887 15.1911L5.05332 16.8666L3.16887 14.9822L4.84443 13.3066C4.44673 12.6893 4.16228 12.006 4.00443 11.2888H1.65332V8.62218H4.02221C4.18006 7.90501 4.46451 7.22172 4.86221 6.6044L3.18665 4.92885L5.0711 3.0444L6.74665 4.71996C7.36397 4.32226 8.04726 4.03781 8.76443 3.87996V1.51107H11.4311V3.87996C12.1483 4.03781 12.8316 4.32226 13.4489 4.71996L15.1244 3.0444L17.0089 4.92885L15.3333 6.6044C15.731 7.22172 16.0155 7.90501 16.1733 8.62218H18.5422V11.2888Z" fill="#77838F"/>
</svg>
