<svg xmlns="http://www.w3.org/2000/svg" viewBox="0 0 140.08 26.66"><defs><style>.cls-1{fill:#c9caca;}.cls-2{fill:#94196b;}.cls-3{fill:#231815;}</style></defs><g id="레이어_2" data-name="레이어 2"><g id="Layer_1" data-name="Layer 1"><polygon class="cls-1" points="0 0 10.04 0 15.97 14.25 11.09 26.65 0 0"/><polygon class="cls-1" points="11.15 0 20.92 0 27.08 14.47 22.24 26.66 11.15 0"/><polygon class="cls-2" points="22.05 0 32.74 0 27.62 12.99 22.05 0"/><path class="cls-3" d="M41.52,22.66a12.22,12.22,0,0,1-2.72-4.23,13.93,13.93,0,0,1-1-5.17,14.17,14.17,0,0,1,1-5.2,12.06,12.06,0,0,1,2.72-4.22l.53.36a15.14,15.14,0,0,0-1.86,4.23,17.6,17.6,0,0,0,0,9.62,16,16,0,0,0,1.86,4.24l-.53.37"/><path class="cls-3" d="M58.77,4.14V6.23H52.84A3.34,3.34,0,0,0,54.76,9a13.17,13.17,0,0,0,4.9,1.59l-1.1,1.62A18.71,18.71,0,0,1,54.08,11a6.54,6.54,0,0,1-2.67-1.92A6.91,6.91,0,0,1,48.73,11a19.22,19.22,0,0,1-4.28,1.21L43.39,10.6A12.52,12.52,0,0,0,48.16,9,3.32,3.32,0,0,0,50,6.23H44.37V4.14h14.4m1.14,12.29h-7v5.93H50.08V16.43H43.16V14.32H59.91Z"/><path class="cls-3" d="M64.22,18.43a12.47,12.47,0,0,1-2.72,4.23L61,22.31a16.45,16.45,0,0,0,1.86-4.26,17.35,17.35,0,0,0,0-9.62A15.47,15.47,0,0,0,61,4.22l.53-.38A12.14,12.14,0,0,1,64.23,8.1a14,14,0,0,1,1,5.16,14.13,14.13,0,0,1-1,5.17"/><path class="cls-3" d="M70.67,11.75a9.64,9.64,0,0,0,5.62,1.43,9.69,9.69,0,0,0,5.62-1.43,3.76,3.76,0,0,0,1.88-3.19,3.77,3.77,0,0,0-1.88-3.19A9.84,9.84,0,0,0,76.29,4a9.8,9.8,0,0,0-5.62,1.41,3.75,3.75,0,0,0-1.86,3.19,3.74,3.74,0,0,0,1.86,3.19m2.2-5A6.77,6.77,0,0,1,76.33,6a6.87,6.87,0,0,1,3.46.74,2,2,0,0,1,0,3.63,6.82,6.82,0,0,1-3.46.73,6.72,6.72,0,0,1-3.46-.73,2,2,0,0,1,0-3.63"/><polygon class="cls-3" points="67.93 14.69 67.93 16.8 74.86 16.8 74.86 22.66 77.69 22.66 77.69 16.8 84.69 16.8 84.69 14.69 67.93 14.69"/><path class="cls-3" d="M92.2,11.93a9.37,9.37,0,0,0,2.11,2.13,16.09,16.09,0,0,0,2.78,1.69l1.3-1.66a9,9,0,0,1-3.25-2.61,7.64,7.64,0,0,1-1.51-4.75h3.73V4.64H87.24V6.73h3.53a8.07,8.07,0,0,1-1.39,4.75,8.08,8.08,0,0,1-3.15,2.61l1.16,1.66a16.94,16.94,0,0,0,2.74-1.69,9.28,9.28,0,0,0,2.07-2.13"/><path class="cls-3" d="M99.63,6V19.52a1,1,0,0,1-1,1.05H91v-3.9H88.16v4a2,2,0,0,0,2,2h10.25a2.1,2.1,0,0,0,2.1-2.1V3.26c-2,0-2.87,1.07-2.87,2.7"/><path class="cls-3" d="M121,9.94V3.26c-2,0-2.87,1.07-2.87,2.7V19.52a1,1,0,0,1-1.05,1.05h-7.28v-4H107v4.12a2,2,0,0,0,2,2h10a2.11,2.11,0,0,0,2.1-2.1V12.15h2V9.94h-2"/><path class="cls-3" d="M110.88,10.66A7.67,7.67,0,0,0,112.79,13a14.35,14.35,0,0,0,3,2.07l1.38-1.62a7.62,7.62,0,0,1-3.34-2.78,11.34,11.34,0,0,1-1.53-6.25h-2.88a11.35,11.35,0,0,1-1.56,6.25,8.71,8.71,0,0,1-3.13,2.8L105.93,15a14.68,14.68,0,0,0,3-2,8.79,8.79,0,0,0,2-2.35"/><path class="cls-3" d="M129.81,11.93a9.11,9.11,0,0,0,2.1,2.13,16.52,16.52,0,0,0,2.78,1.7L136,14.1a9.08,9.08,0,0,1-3.25-2.61,7.74,7.74,0,0,1-1.51-4.75H135V4.65H124.84V6.74h3.53A8,8,0,0,1,127,11.49a8.17,8.17,0,0,1-3.15,2.61L125,15.76a17.53,17.53,0,0,0,2.75-1.7,9.3,9.3,0,0,0,2.07-2.13"/><path class="cls-3" d="M137.22,6V8.72h-3.14v2.11h3.14v8.69a1,1,0,0,1-1,1.05h-7.57V16.65h-2.85v4a2,2,0,0,0,2,2H138a2.1,2.1,0,0,0,2.1-2.1V3.26c-2,0-2.86,1.09-2.86,2.7"/></g></g></svg>