<svg id="레이어_1" data-name="레이어 1" xmlns="http://www.w3.org/2000/svg" viewBox="0 0 188 59"><defs><style>.cls-1{fill:#ff7300;}.cls-2{fill:#fff;}</style></defs><path class="cls-1" d="M5.19,28a8.58,8.58,0,0,1,8.87-8.81A8.6,8.6,0,0,1,23,28a8.58,8.58,0,0,1-8.88,8.81A8.59,8.59,0,0,1,5.19,28Zm15.56,0a6.51,6.51,0,0,0-6.69-6.79A6.49,6.49,0,0,0,7.39,28a6.53,6.53,0,0,0,6.69,6.79A6.52,6.52,0,0,0,20.75,28Z"/><path class="cls-1" d="M27.91,24.4v1.85a5,5,0,0,1,4.33-2.14,4.76,4.76,0,0,1,1.64.21v2.06A4.29,4.29,0,0,0,32.09,26a4.15,4.15,0,0,0-4.18,4.17v6.22H25.74v-12Z"/><path class="cls-1" d="M34.76,30.42a6,6,0,0,1,6-6.31A4.86,4.86,0,0,1,45,26.19V24.4h2.17v12H45V34.65a4.88,4.88,0,0,1-4.27,2.08A6,6,0,0,1,34.76,30.42Zm10.26,0A4.12,4.12,0,0,0,40.9,26c-2.42,0-4,1.9-4,4.4s1.6,4.39,4,4.39A4.12,4.12,0,0,0,45,30.42Z"/><path class="cls-1" d="M52.71,24.4v1.83a4.68,4.68,0,0,1,4.08-2.12c2.84,0,4.84,2,4.84,5.28v7H59.46V29.77c0-2.44-1.17-3.77-3.13-3.77s-3.62,2-3.62,4.21v6.22H50.55v-12Z"/><path class="cls-1" d="M64.88,37.57h2.21c.25,1.28,1.33,2.4,3.49,2.4a3.55,3.55,0,0,0,3.7-3.83V34.48A4.86,4.86,0,0,1,70,36.56a5.94,5.94,0,0,1-6-6.2,6,6,0,0,1,6-6.25,4.86,4.86,0,0,1,4.27,2.08V24.4h2.17V36.16a5.54,5.54,0,0,1-5.87,5.68C67.13,41.84,65.3,39.84,64.88,37.57Zm9.45-7.21A4.1,4.1,0,0,0,70.2,26a4,4,0,0,0-4,4.34,4,4,0,0,0,4,4.33A4.1,4.1,0,0,0,74.33,30.36Z"/><path class="cls-1" d="M79.22,30.42a6,6,0,1,1,12,0,5.32,5.32,0,0,1,0,.88H81.38a3.84,3.84,0,0,0,3.87,3.6,3.58,3.58,0,0,0,3.37-1.75h2.21a5.6,5.6,0,0,1-5.58,3.58A6,6,0,0,1,79.22,30.42Zm6-4.48a3.81,3.81,0,0,0-3.87,3.59h7.76A3.82,3.82,0,0,0,85.25,25.94Z"/><path class="cls-1" d="M174.7,6.17H105.79a7.43,7.43,0,0,0-7.41,7.41V43.94a7.31,7.31,0,0,0,.77,3.22l-2.94,7.51,8.7-3.41a6.4,6.4,0,0,0,.88.09H174.7a7.43,7.43,0,0,0,7.42-7.41V13.58A7.43,7.43,0,0,0,174.7,6.17Z"/><path class="cls-2" d="M133.55,24.32l-4.31,12.22H127l-3.22-9.35-3.2,9.35h-2.23l-4.31-12.22h2.29l3.2,9.49,3.18-9.49h2.22l3.21,9.55,3.22-9.55Z"/><path class="cls-2" d="M138.43,20.14A1.47,1.47,0,1,1,137,18.69,1.42,1.42,0,0,1,138.43,20.14Zm-2.56,16.42V24.32h2.2V36.56Z"/><path class="cls-2" d="M147.17,36.84a6.17,6.17,0,0,1-6.28-6.41,6.14,6.14,0,0,1,6.24-6.4,5.75,5.75,0,0,1,5.74,4.39h-2.24a3.56,3.56,0,0,0-3.5-2.45c-2.44,0-4.08,1.92-4.08,4.46s1.64,4.47,4.08,4.47a3.62,3.62,0,0,0,3.54-2.5h2.24A5.76,5.76,0,0,1,147.17,36.84Z"/><path class="cls-2" d="M160.1,31l-2.42,2.54v3h-2.2V18.9h2.2v12l6.09-6.54h2.58l-4.87,5.15,5.39,7.07h-2.61Z"/></svg>