<svg width="64" height="29" viewBox="0 0 64 29" fill="none" xmlns="http://www.w3.org/2000/svg">
<path d="M63.9865 8.37225C63.7655 5.14725 60.9655 2.69725 57.7355 2.92325C56.1725 3.03025 54.7455 3.73925 53.7165 4.92025C52.6875 6.10025 52.1795 7.61125 52.2865 9.17425C52.3475 10.0712 52.6135 10.9032 53.0275 11.6392L45.9315 17.4812C45.7475 17.2372 45.5515 17.0002 45.3295 16.7782C42.9315 14.3792 39.1515 14.1912 36.5285 16.2042L33.0035 12.8252C35.3615 9.68525 35.1215 5.20025 32.2665 2.34525C29.1395 -0.78175 24.0505 -0.78175 20.9235 2.34525C18.4115 4.85725 17.9215 8.63225 19.4445 11.6412L12.6795 15.9482C12.3605 15.3092 11.9425 14.7172 11.4235 14.1972C10.1595 12.9332 8.4785 12.2362 6.6905 12.2362C4.9025 12.2362 3.2215 12.9322 1.9575 14.1972C-0.6525 16.8072 -0.6525 21.0532 1.9575 23.6632C3.2625 24.9682 4.9765 25.6202 6.6905 25.6202C8.4045 25.6202 10.1185 24.9682 11.4235 23.6632C12.6875 22.3992 13.3845 20.7183 13.3845 18.9303C13.3845 18.5093 13.3425 18.0942 13.2665 17.6892L20.4195 13.1312C20.5775 13.3222 20.7435 13.5092 20.9225 13.6882C22.4865 15.2522 24.5405 16.0342 26.5935 16.0342C28.4455 16.0342 30.2925 15.3932 31.7855 14.1222L35.2725 17.4642C34.3885 18.6232 33.9025 20.0282 33.9025 21.5102C33.9025 23.2982 34.5985 24.9792 35.8635 26.2432C37.1685 27.5482 38.8815 28.2002 40.5965 28.2002C42.3105 28.2002 44.0245 27.5472 45.3295 26.2432C47.2685 24.3042 47.7645 21.4622 46.8215 19.0582L54.1255 13.0452C55.1815 14.0352 56.5965 14.6372 58.1325 14.6372C58.2665 14.6372 58.4015 14.6332 58.5375 14.6232C60.1005 14.5162 61.5275 13.8072 62.5565 12.6262C63.5865 11.4452 64.0935 9.93425 63.9865 8.37225ZM10.1625 22.4022C8.2485 24.3162 5.1335 24.3172 3.2185 22.4022C1.3045 20.4872 1.3045 17.3723 3.2185 15.4583C4.1455 14.5313 5.3795 14.0202 6.6905 14.0202C8.0015 14.0202 9.2345 14.5313 10.1625 15.4583C11.0895 16.3853 11.6005 17.6183 11.6005 18.9303C11.6005 20.2413 11.0895 21.4742 10.1625 22.4022ZM22.1845 12.4272C19.7525 9.99525 19.7535 6.03825 22.1845 3.60625C23.4005 2.39025 24.9975 1.78225 26.5945 1.78225C28.1915 1.78225 29.7885 2.39025 31.0045 3.60625C33.4365 6.03825 33.4365 9.99525 31.0045 12.4272C28.5735 14.8602 24.6165 14.8592 22.1845 12.4272ZM44.0685 24.9832C42.1545 26.8972 39.0395 26.8982 37.1245 24.9832C36.1975 24.0562 35.6865 22.8232 35.6865 21.5112C35.6865 20.1992 36.1975 18.9672 37.1245 18.0392C38.0815 17.0822 39.3395 16.6032 40.5965 16.6032C41.8535 16.6032 43.1115 17.0822 44.0685 18.0392C44.9955 18.9662 45.5065 20.1992 45.5065 21.5112C45.5065 22.8222 44.9955 24.0552 44.0685 24.9832ZM58.4155 12.8442C57.3265 12.9182 56.2765 12.5652 55.4555 11.8492C54.6345 11.1332 54.1405 10.1402 54.0665 9.05225C53.9925 7.96425 54.3455 6.91425 55.0615 6.09225C55.7775 5.27025 56.7705 4.77725 57.8575 4.70225C57.9525 4.69525 58.0475 4.69225 58.1425 4.69225C59.1275 4.69225 60.0685 5.04325 60.8185 5.69725C61.6395 6.41325 62.1335 7.40625 62.2075 8.49425C62.3615 10.7382 60.6605 12.6902 58.4155 12.8442Z" fill="#DEDFDE"/>
</svg>
