<svg width="17" height="16" viewBox="0 0 17 16" fill="none" xmlns="http://www.w3.org/2000/svg">
<path d="M8.01133 7.62609e-06C3.85256 -0.00568472 0.382999 3.17599 0.0293446 7.3197C-0.324309 11.4634 2.5559 15.187 6.65549 15.8862C10.7551 16.5853 14.7066 14.0267 15.7463 10H13.6653C12.6481 12.8771 9.63336 14.5324 6.6598 13.8465C3.68624 13.1605 1.70124 10.3519 2.04715 7.3199C2.39306 4.28792 4.95968 1.99856 8.01133 2.00001C9.60088 2.00234 11.1227 2.64379 12.2343 3.78002L9.01633 7.00001H16.0163V7.62609e-06L13.6653 2.35002C12.1691 0.844637 10.1338 -0.0012743 8.01133 7.62609e-06Z" fill="black"/>
</svg>
