<svg width="33" height="33" viewBox="0 0 33 33" fill="none" xmlns="http://www.w3.org/2000/svg">
<path d="M16.5 33C25.6127 33 33 25.6127 33 16.5C33 7.3873 25.6127 0 16.5 0C7.3873 0 0 7.3873 0 16.5C0 25.6127 7.3873 33 16.5 33Z" fill="#E8F2FF"/>
<rect x="8.5" y="8.5" width="16" height="16" rx="1.5" stroke="#4092FE"/>
<path d="M21.5758 16.8536C21.7711 16.6583 21.7711 16.3417 21.5758 16.1464L18.3938 12.9645C18.1986 12.7692 17.882 12.7692 17.6867 12.9645C17.4915 13.1597 17.4915 13.4763 17.6867 13.6716L20.5152 16.5L17.6867 19.3284C17.4915 19.5237 17.4915 19.8403 17.6867 20.0355C17.882 20.2308 18.1986 20.2308 18.3938 20.0355L21.5758 16.8536ZM11.7778 17H21.2223V16H11.7778V17Z" fill="#4092FE"/>
</svg>
