<svg width="16" height="12" viewBox="0 0 16 12" fill="none" xmlns="http://www.w3.org/2000/svg">
<path d="M8 11.9989C6.6879 12.0164 5.38936 11.713 4.2032 11.1119C3.28375 10.6313 2.45812 9.96756 1.7704 9.15616C1.04195 8.31725 0.468374 7.33815 0.08 6.27061L0 5.99979L0.084 5.72898C0.472652 4.66237 1.04499 3.68352 1.7712 2.84342C2.45867 2.0321 3.28403 1.36839 4.2032 0.887721C5.38937 0.286603 6.6879 -0.0167594 8 0.000714208C9.31209 -0.0167292 10.6106 0.286632 11.7968 0.887721C12.7163 1.36828 13.5419 2.032 14.2296 2.84342C14.9594 3.6812 15.5332 4.6606 15.92 5.72898L16 5.99979L15.916 6.27061C14.661 9.77046 11.4994 12.0583 8 11.9989ZM8 1.71474C5.2767 1.62332 2.77713 3.32171 1.6936 5.99979C2.77696 8.67803 5.27663 10.3765 8 10.2848C10.7232 10.376 13.2227 8.67771 14.3064 5.99979C13.2243 3.32041 10.7238 1.62139 8 1.71474ZM8 8.57083C6.84586 8.57901 5.84749 7.71155 5.61677 6.50009C5.38605 5.28863 5.98742 4.07154 7.05231 3.59473C8.1172 3.11792 9.34819 3.51458 9.99084 4.54159C10.6335 5.56861 10.5083 6.93914 9.692 7.81323C9.24506 8.29766 8.63581 8.57045 8 8.57083Z" fill="#979797"/>
</svg>
