<svg width="42" height="42" viewBox="0 0 42 42" fill="none" xmlns="http://www.w3.org/2000/svg">
<path d="M0 18C0 8.05887 8.05888 0 18 0H42V24C42 33.9411 33.9411 42 24 42H0V18Z" fill="#4F94F1"/>
<path d="M10.716 17.502C10.716 16.634 11.458 16.074 12.508 16.074C13.572 16.074 14.286 16.634 14.286 17.502C14.286 18.384 13.572 18.944 12.508 18.944C11.458 18.944 10.716 18.384 10.716 17.502ZM16.428 20.764C15.42 20.918 14.328 21.002 13.25 21.072V19.98C14.678 19.742 15.63 18.79 15.63 17.502C15.63 16.004 14.342 14.982 12.508 14.982C10.674 14.982 9.372 16.004 9.372 17.502C9.372 18.804 10.352 19.756 11.808 19.98V21.128C10.674 21.17 9.596 21.17 8.686 21.17L8.868 22.346C10.982 22.346 13.922 22.304 16.526 21.814L16.428 20.764ZM11.878 23.284H10.436V26.826H19.046V25.664H11.878V23.284ZM18.612 18.58V14.45H17.17V24.11H18.612V19.77H20.348V18.58H18.612ZM26.9619 22.22H29.5519V24.404H26.9619V22.22ZM30.9799 24.404V22.22H32.8419V21.058H25.2679V19.308H32.5619V15.318H23.8259V16.48H31.1339V18.16H23.8539V22.22H25.5339V24.404H22.4679V25.594H33.9199V24.404H30.9799Z" fill="white"/>
</svg>
