<svg width="42" height="42" viewBox="0 0 42 42" fill="none" xmlns="http://www.w3.org/2000/svg">
<path d="M0 18C0 8.05887 8.05888 0 18 0H42V24C42 33.9411 33.9411 42 24 42H0V18Z" fill="#979797"/>
<path d="M10.548 18.11H13.81V16.934H9.134V25.068H9.974C11.752 25.068 13.054 25.012 14.58 24.718L14.454 23.528C13.152 23.794 12.004 23.864 10.548 23.878V18.11ZM18.122 15.422V20.42H16.624V15.688H15.266V27.448H16.624V21.596H18.122V28.064H19.494V15.422H18.122ZM23.1819 16.766V17.942H27.6899C27.4379 20.854 25.8699 23.08 22.5519 24.676L23.3219 25.824C27.6619 23.724 29.1739 20.532 29.1739 16.766H23.1819ZM31.4559 15.436V28.078H32.8979V15.436H31.4559Z" fill="white"/>
</svg>
